<svg xmlns="http://www.w3.org/2000/svg" width="120" height="40" viewBox="0 0 120 40"><rect width="100%" height="100%" fill="#999999"/><path fill="#ffffff" d="m23.215 18.77-.2.31q-.04.06-.07.08-.04.02-.1.02-.07 0-.14-.03-.07-.04-.16-.08-.1-.05-.22-.08-.12-.04-.28-.04-.26 0-.4.11-.15.11-.15.28 0 .12.08.2.07.08.2.14.12.06.28.1.15.05.32.11.16.05.32.13.15.07.28.18.12.11.2.26.07.16.07.37 0 .26-.09.48t-.27.38q-.19.16-.45.25-.27.09-.62.09-.19 0-.36-.04-.18-.03-.34-.09-.17-.06-.3-.14-.14-.08-.25-.18l.2-.32q.04-.06.09-.1.06-.03.14-.03t.15.05q.07.04.16.1.1.05.23.1.12.04.32.04.15 0 .27-.04.11-.03.18-.09t.1-.14q.04-.08.04-.16 0-.13-.08-.21t-.2-.14-.28-.11q-.16-.04-.33-.1-.16-.06-.32-.13-.16-.08-.29-.19-.12-.12-.2-.29-.07-.16-.07-.4 0-.22.09-.42.08-.2.25-.35t.43-.24q.25-.09.58-.09.37 0 .68.13.3.12.51.32m1.55-2v1.99q.21-.19.46-.31.25-.13.59-.13.3 0 .52.1.23.1.38.28.16.18.24.43.07.25.07.55v2.29h-.86v-2.29q0-.32-.15-.5-.15-.19-.46-.19-.22 0-.42.11-.2.1-.37.27v2.6h-.87v-5.2zm4.98 4.27v-.6q-.37.01-.63.06t-.41.12q-.15.08-.22.17-.07.1-.07.22 0 .23.14.32.13.1.35.1.27 0 .46-.1.19-.09.38-.29m-1.83-1.88-.15-.28q.62-.57 1.49-.57.31 0 .56.11.25.1.42.28.17.19.26.44.09.26.09.56v2.27h-.39q-.12 0-.19-.04-.06-.03-.1-.15l-.08-.25q-.14.12-.27.21t-.27.16q-.14.06-.29.09-.16.04-.36.04-.22 0-.42-.07-.19-.06-.33-.18t-.22-.3q-.07-.19-.07-.43 0-.13.04-.27.05-.13.15-.26.1-.12.27-.23.16-.11.4-.19t.56-.13.73-.06v-.21q0-.36-.15-.53-.16-.18-.45-.18-.21 0-.35.05t-.24.11q-.11.07-.19.11-.09.05-.19.05-.09 0-.16-.04-.06-.05-.1-.11m4.25-.56.05.4q.17-.32.4-.5.23-.19.55-.19.24 0 .39.11l-.05.65q-.02.06-.05.09-.04.02-.09.02t-.16-.01q-.1-.02-.2-.02-.14 0-.25.04-.12.04-.2.12-.09.08-.16.19t-.13.26v2.21h-.86v-3.59h.5q.14 0 .19.05.05.04.07.17m2.71 3.37h-.86v-3.59h.52q.17 0 .23.16l.05.26q.1-.1.2-.19t.22-.15.25-.1q.14-.04.3-.04.34 0 .56.19.21.18.32.48.09-.17.21-.3.13-.13.28-.21t.32-.12.34-.04q.3 0 .53.09.23.1.39.27t.24.43q.08.25.08.57v2.29h-.86v-2.29q0-.34-.16-.51-.15-.18-.44-.18-.13 0-.24.05-.12.05-.2.13-.09.09-.14.22t-.05.29v2.29h-.86v-2.29q0-.36-.15-.52-.14-.17-.42-.17-.19 0-.36.1-.16.09-.3.25zm6.9-.93v-.6q-.38.01-.63.06-.26.05-.41.12-.16.08-.22.17-.07.1-.07.22 0 .23.13.32.14.1.36.1.26 0 .46-.1.19-.09.38-.29m-1.83-1.88-.16-.28q.62-.57 1.5-.57.31 0 .56.11.25.1.42.28.17.19.26.44.09.26.09.56v2.27h-.39q-.13 0-.19-.04-.07-.03-.11-.15l-.07-.25q-.14.12-.27.21t-.27.16q-.14.06-.3.09-.16.04-.35.04-.23 0-.42-.07-.19-.06-.33-.18t-.22-.3q-.08-.19-.08-.43 0-.13.05-.27.04-.13.15-.26.1-.12.27-.23.16-.11.4-.19t.56-.13.73-.06v-.21q0-.36-.16-.53-.15-.18-.44-.18-.21 0-.35.05t-.24.11q-.11.07-.19.11-.09.05-.2.05-.09 0-.15-.04-.06-.05-.1-.11m4.79.93q.16 0 .28-.05.12-.04.2-.12.08-.07.12-.18t.04-.24q0-.27-.16-.42-.16-.16-.48-.16-.31 0-.47.16-.16.15-.16.42 0 .12.04.23t.12.19q.07.08.2.12.12.05.27.05m.98 2.04q0-.1-.06-.17-.07-.07-.17-.1-.11-.04-.26-.06-.14-.02-.31-.02l-.33-.02q-.18-.01-.34-.03-.14.08-.23.19t-.09.25q0 .1.05.18.04.08.15.14.1.06.26.09.17.04.41.04t.41-.04q.18-.04.29-.1.12-.07.17-.15.05-.09.05-.2m-.17-3.63h1.03v.32q0 .16-.18.19l-.33.06q.08.19.08.41 0 .26-.11.48-.11.21-.3.36-.18.16-.44.24t-.56.08q-.1 0-.2-.01t-.19-.03q-.17.1-.17.23 0 .11.1.16t.26.07q.17.02.38.03.21 0 .43.02t.43.06.37.14q.17.09.27.26.1.16.1.41 0 .24-.12.47-.12.22-.34.4-.22.17-.54.28-.33.1-.74.1t-.71-.08q-.3-.07-.5-.21-.2-.13-.3-.3-.09-.17-.09-.35 0-.26.15-.43t.42-.27q-.15-.07-.23-.19-.09-.13-.09-.33 0-.08.03-.16.03-.09.09-.17.06-.09.15-.16.08-.08.2-.14-.27-.14-.42-.39-.16-.24-.16-.57 0-.27.11-.48.1-.22.29-.37t.46-.23q.26-.08.56-.08.23 0 .44.04.2.05.37.14m1.4 3.94h2.76V23h-2.76zm4.56-.47h-.87v-2.94l-.31-.05q-.1-.02-.16-.07t-.06-.15v-.35h.53v-.27q0-.3.1-.55.09-.24.26-.41.18-.18.43-.27.24-.09.56-.09.24 0 .46.07l-.02.43q0 .05-.03.08-.02.03-.06.05-.04.01-.1.02h-.11q-.15 0-.27.04-.12.03-.21.11-.08.08-.12.22-.05.13-.05.33v.24h.94v.62h-.91zm3.62-3.59h.87v3.59h-.53q-.17 0-.22-.16l-.06-.28q-.22.22-.49.36-.26.14-.62.14-.3 0-.52-.1-.23-.1-.38-.29-.16-.18-.23-.43-.08-.25-.08-.55v-2.28h.86v2.28q0 .33.15.51.16.18.46.18.22 0 .42-.1t.37-.27zm2.48.22.06.4q.16-.32.39-.5.24-.19.55-.19.25 0 .4.11l-.06.65q-.01.06-.05.09-.03.02-.09.02-.05 0-.15-.01-.11-.02-.2-.02-.15 0-.26.04t-.2.12-.16.19-.13.26v2.21h-.86v-3.59h.51q.13 0 .18.05.06.04.07.17m2.6-.06.06.28q.11-.11.23-.2t.25-.16q.14-.06.29-.1.16-.04.34-.04.29 0 .52.1t.38.28.23.43.08.55v2.29h-.86v-2.29q0-.32-.15-.5-.16-.19-.46-.19-.23 0-.42.11-.2.1-.37.27v2.6h-.87v-3.59h.53q.17 0 .22.16m3.23-.16h.87v3.59h-.87zm.98-1.05q0 .11-.04.21-.05.1-.12.17-.08.08-.18.12-.1.05-.22.05-.11 0-.21-.05-.1-.04-.17-.12-.07-.07-.12-.17-.04-.1-.04-.21t.04-.21q.05-.11.12-.18t.17-.12q.1-.04.21-.04.12 0 .22.04.1.05.18.12.07.07.12.18.04.1.04.21m1.96 4.7q-.46 0-.71-.27-.26-.26-.26-.73v-2h-.36q-.07 0-.12-.05-.05-.04-.05-.14v-.34l.58-.09.18-.98q.02-.07.07-.11.04-.04.12-.04h.45v1.13h.96v.62h-.96v1.94q0 .17.08.27.08.09.23.09.08 0 .13-.02.06-.02.1-.04t.07-.04.06-.02q.04 0 .06.02.03.02.06.06l.26.42q-.19.16-.44.24-.24.08-.51.08m3.64-3.65h.87v3.59h-.53q-.17 0-.22-.16l-.06-.28q-.22.22-.49.36-.26.14-.62.14-.3 0-.52-.1-.23-.1-.38-.29-.16-.18-.23-.43-.08-.25-.08-.55v-2.28h.86v2.28q0 .33.15.51.16.18.46.18.22 0 .42-.1t.37-.27zm2.48.22.05.4q.17-.32.4-.5.23-.19.55-.19.25 0 .4.11l-.06.65q-.01.06-.05.09-.03.02-.09.02-.05 0-.15-.01-.11-.02-.2-.02-.15 0-.26.04t-.2.12-.16.19-.13.26v2.21h-.86v-3.59h.51q.13 0 .18.05.05.04.07.17m2.53 1.16h1.63q0-.17-.04-.32-.05-.14-.15-.26-.09-.11-.23-.17-.15-.07-.34-.07-.38 0-.59.22-.22.21-.28.6m2.21.52h-2.22q.02.28.09.48.08.2.21.33.12.13.3.2.17.06.38.06t.36-.05q.15-.04.27-.1l.2-.11q.08-.05.16-.05.11 0 .16.08l.25.31q-.14.17-.32.29-.18.11-.37.18-.2.07-.4.09-.2.03-.39.03-.37 0-.69-.12-.33-.13-.56-.37-.24-.24-.38-.6t-.14-.83q0-.37.12-.69.12-.33.34-.57.23-.24.55-.38t.72-.14q.34 0 .63.11.28.11.49.32t.32.51q.12.3.12.69 0 .2-.04.26-.04.07-.16.07m.67 2.16h2.76V23h-2.76zm4.31-5.67v1.99q.21-.19.46-.31.25-.13.59-.13.3 0 .52.1.23.1.38.28.16.18.23.43.08.25.08.55v2.29h-.86v-2.29q0-.32-.15-.5-.15-.19-.46-.19-.22 0-.42.11-.2.1-.37.27v2.6h-.87v-5.2zm4.67 1.55q.4 0 .73.13.32.13.56.37.23.24.36.58.12.34.12.77 0 .42-.12.77-.13.34-.36.58-.24.24-.56.37-.33.13-.73.13t-.73-.13-.56-.37q-.24-.24-.36-.58-.13-.35-.13-.77 0-.43.13-.77.12-.34.36-.58.23-.24.56-.37t.73-.13m0 3.04q.45 0 .66-.3.22-.3.22-.89 0-.58-.22-.88-.21-.31-.66-.31t-.67.31-.22.88q0 .58.22.88.22.31.67.31m4.66-2.98h.87v3.59h-.53q-.17 0-.22-.16l-.06-.28q-.22.22-.48.36-.27.14-.63.14-.29 0-.52-.1t-.38-.29q-.15-.18-.23-.43t-.08-.55v-2.28h.86v2.28q0 .33.16.51.15.18.45.18.23 0 .42-.1.2-.1.37-.27zm4.11.39-.2.31q-.03.06-.07.08t-.1.02-.13-.03q-.08-.04-.17-.08-.09-.05-.22-.08-.12-.04-.28-.04-.26 0-.4.11-.15.11-.15.28 0 .12.08.2.07.08.2.14.12.06.28.1.16.05.32.11.16.05.32.13.16.07.28.18.13.11.2.26.08.16.08.37 0 .26-.1.48-.09.22-.27.38t-.45.25-.62.09q-.18 0-.36-.04-.18-.03-.34-.09t-.3-.14-.24-.18l.2-.32q.03-.06.09-.1.05-.03.13-.03t.15.05q.07.04.17.1.09.05.22.1.13.04.32.04.16 0 .27-.04.11-.03.18-.09t.11-.14q.03-.08.03-.16 0-.13-.08-.21-.07-.08-.2-.14-.12-.06-.28-.11-.16-.04-.33-.1-.16-.06-.32-.13-.16-.08-.28-.19-.13-.12-.2-.29-.08-.16-.08-.4 0-.22.09-.42t.26-.35.42-.24.59-.09q.37 0 .67.13.31.12.51.32m1.37.99h1.63q0-.17-.05-.32-.04-.14-.14-.26-.09-.11-.24-.17-.14-.07-.34-.07-.37 0-.58.22-.22.21-.28.6m2.21.52h-2.23q.02.28.1.48t.2.33q.13.13.3.2.18.06.39.06t.36-.05q.15-.04.26-.1.12-.06.2-.11.09-.05.17-.05.11 0 .16.08l.25.31q-.14.17-.32.29-.18.11-.37.18-.2.07-.4.09-.2.03-.39.03-.38 0-.7-.12-.32-.13-.56-.37t-.37-.6q-.14-.36-.14-.83 0-.37.12-.69.12-.33.34-.57t.54-.38.73-.14q.34 0 .62.11.29.11.5.32.2.21.32.51t.12.69q0 .2-.04.26-.05.07-.16.07"/></svg>